<?xml version="1.0" standalone="no"?><!DOCTYPE svg PUBLIC "-//W3C//DTD SVG 1.1//EN" "http://www.w3.org/Graphics/SVG/1.1/DTD/svg11.dtd"><svg class="icon" style="" viewBox="0 0 1025 1024" version="1.1" xmlns="http://www.w3.org/2000/svg" p-id="869" xmlns:xlink="http://www.w3.org/1999/xlink" width="200.1953125" height="200"><defs><style type="text/css"><![CDATA[

]]></style></defs><path d="M512.108 32.48c-85.774 0-166.315 22.488-236.01 61.847C130.374 176.645 32 332.857 32 511.989l0-0.001c0 264.881 214.939 479.555 480.108 479.532 265.17 0 480.107-214.675 480.084-479.556C992.192 247.154 777.229 32.48 512.108 32.48zM512.108 931.596c-232.027 0-420.087-187.868-420.11-419.582 0-231.715 188.083-419.558 420.11-419.558 232.002 0 420.062 187.844 420.062 419.558C932.17 743.753 744.086 931.596 512.108 931.596zM584.274 526.607c41.853-25.991 69.982-72.167 70.01-125.307 0-81.504-65.657-147.587-146.634-147.587S361.014 319.795 361.014 401.3c0 53.139 28.132 99.315 69.97 125.307-83.527 31.414-143.293 111.775-143.293 206.795 0 10.174 8.208 18.44 18.323 18.44s18.324-8.252 18.324-18.44c0-101.896 82.064-184.5 183.283-184.5 101.237 0 183.299 82.604 183.299 184.5 0 10.174 8.193 18.44 18.323 18.44 10.115 0 18.324-8.252 18.324-18.44C727.567 638.381 667.788 558.005 584.274 526.607zM397.65 401.315c0-61.142 49.241-110.705 109.973-110.705 60.735 0 109.972 49.578 109.973 110.705 0 61.128-49.24 110.69-109.973 110.69S397.65 462.442 397.65 401.315z" p-id="870" fill="#c2c2c2"></path></svg>